<?xml version="1.0" encoding="utf-8"?>
<!-- Generator: Adobe Illustrator 16.0.4, SVG Export Plug-In . SVG Version: 6.00 Build 0)  -->
<!DOCTYPE svg PUBLIC "-//W3C//DTD SVG 1.1//EN" "http://www.w3.org/Graphics/SVG/1.1/DTD/svg11.dtd">
<svg version="1.1" id="Layer_1" xmlns="http://www.w3.org/2000/svg" xmlns:xlink="http://www.w3.org/1999/xlink" x="0px" y="0px"
	 width="300px" height="60px" viewBox="0 0 300 60" enable-background="new 0 0 300 60" xml:space="preserve">
<g>
	<circle fill-rule="evenodd" clip-rule="evenodd" fill="#CCCCCC" cx="30" cy="29.816" r="20"/>
	<path fill-rule="evenodd" clip-rule="evenodd" fill="#FFFFFF" d="M27.245,35.127c0-1.645-0.005-3.287,0.007-4.932
		c0.002-0.277-0.077-0.363-0.354-0.352c-0.512,0.02-1.026-0.002-1.539,0.01c-0.208,0.004-0.285-0.053-0.281-0.273
		c0.009-1.025,0.009-2.051,0-3.077c-0.002-0.197,0.058-0.262,0.257-0.258c0.524,0.012,1.05-0.015,1.574,0.011
		c0.302,0.015,0.366-0.093,0.36-0.375c-0.019-0.781-0.019-1.562-0.002-2.343c0.021-0.954,0.276-1.844,0.845-2.619
		c0.719-0.982,1.741-1.431,2.919-1.483c1.211-0.054,2.425-0.024,3.637-0.037c0.168-0.002,0.219,0.059,0.218,0.223
		c-0.005,1.038-0.006,2.075,0.001,3.113c0.002,0.185-0.058,0.241-0.24,0.238c-0.583-0.009-1.166-0.005-1.748-0.003
		c-0.776,0.002-1.241,0.401-1.29,1.169c-0.039,0.616-0.01,1.235-0.025,1.853c-0.005,0.22,0.126,0.205,0.272,0.205
		c0.886-0.001,1.772,0.009,2.658-0.006c0.26-0.005,0.346,0.055,0.316,0.329c-0.112,1.031-0.208,2.063-0.296,3.097
		c-0.02,0.232-0.126,0.277-0.335,0.273c-0.7-0.01-1.399-0.007-2.099-0.002c-0.502,0.002-0.454-0.074-0.454,0.438
		c-0.002,3.217-0.007,6.436,0.007,9.655c0.001,0.34-0.085,0.424-0.421,0.418c-1.201-0.023-2.402-0.023-3.603,0
		c-0.339,0.008-0.395-0.109-0.391-0.41C27.251,38.367,27.245,36.748,27.245,35.127z"/>
</g>
<g>
	<circle fill-rule="evenodd" clip-rule="evenodd" fill="#CCCCCC" cx="90" cy="29.648" r="20"/>
	<path fill-rule="evenodd" clip-rule="evenodd" fill="#FFFFFF" d="M82.567,20.025h14.866c1.413,0,2.567,1.112,2.567,2.47v14.305
		c0,1.359-1.155,2.471-2.567,2.471H82.567c-1.412,0-2.567-1.111-2.567-2.471V22.496C80,21.137,81.155,20.025,82.567,20.025
		L82.567,20.025z M94.569,22.164c-0.495,0-0.9,0.39-0.9,0.866v2.074c0,0.477,0.405,0.867,0.9,0.867h2.261
		c0.496,0,0.901-0.39,0.901-0.867V23.03c0-0.477-0.406-0.866-0.901-0.866H94.569L94.569,22.164z M97.74,28.164h-1.761
		c0.166,0.524,0.256,1.078,0.256,1.652c0,3.2-2.784,5.795-6.217,5.795c-3.434,0-6.216-2.596-6.216-5.795
		c0-0.574,0.089-1.128,0.256-1.652h-1.837v8.131c0,0.42,0.358,0.764,0.795,0.764h13.927c0.438,0,0.796-0.344,0.796-0.764V28.164
		L97.74,28.164z M90.019,25.861c-2.218,0-4.017,1.677-4.017,3.746c0,2.067,1.798,3.745,4.017,3.745c2.219,0,4.017-1.678,4.017-3.745
		C94.036,27.538,92.238,25.861,90.019,25.861z"/>
</g>
<g>
	<circle fill-rule="evenodd" clip-rule="evenodd" fill="#CCCCCC" cx="150" cy="29.89" r="20"/>
	<path fill-rule="evenodd" clip-rule="evenodd" fill="#FEFEFE" d="M145.112,32.275c0-1.327-0.007-2.653,0.006-3.98
		c0.002-0.256-0.078-0.318-0.323-0.312c-0.646,0.016-1.292-0.006-1.938,0.01c-0.239,0.006-0.332-0.044-0.325-0.308
		c0.02-0.679,0.016-1.359,0.003-2.039c-0.005-0.209,0.064-0.311,0.254-0.4c1.169-0.554,2.162-1.325,2.897-2.403
		c0.598-0.876,0.936-1.844,0.966-2.905c0.007-0.26,0.087-0.314,0.327-0.31c0.657,0.016,1.315,0.017,1.973,0
		c0.254-0.007,0.318,0.072,0.317,0.32c-0.01,1.516,0.005,3.031-0.008,4.547c-0.002,0.277,0.071,0.354,0.348,0.352
		c1.493-0.011,2.987,0.007,4.48-0.007c0.29-0.003,0.354,0.086,0.35,0.355c-0.015,0.836-0.014,1.672,0.003,2.508
		c0.005,0.246-0.083,0.291-0.307,0.29c-1.504-0.009-3.009,0.002-4.514-0.01c-0.264-0.003-0.362,0.044-0.36,0.339
		c0.014,1.928,0.005,3.855,0.009,5.785c0,0.221,0.018,0.445,0.056,0.664c0.194,1.111,1.013,1.801,2.142,1.828
		c1.094,0.027,2.106-0.299,3.105-0.695c0.366-0.146,0.367-0.146,0.367,0.232c0.002,0.836,0,1.672,0.005,2.508
		c0.001,0.145-0.008,0.254-0.183,0.299c-2.007,0.518-4.032,0.857-6.113,0.592c-0.724-0.092-1.417-0.295-2.04-0.693
		c-0.981-0.627-1.462-1.545-1.485-2.688c-0.027-1.293-0.007-2.586-0.007-3.879C145.115,32.275,145.113,32.275,145.112,32.275z"/>
</g>
<g>
	<circle fill-rule="evenodd" clip-rule="evenodd" fill="#CCCCCC" cx="210" cy="29.772" r="20"/>
	<path fill="#FEFEFE" d="M221,24.036c-0.736,0.327-1.525,0.546-2.355,0.646c0.846-0.508,1.496-1.313,1.803-2.271
		c-0.791,0.471-1.67,0.812-2.605,0.996c-0.748-0.797-1.814-1.295-2.994-1.295c-2.266,0-4.104,1.837-4.104,4.103
		c0,0.321,0.035,0.634,0.105,0.935c-3.41-0.172-6.434-1.805-8.457-4.288c-0.354,0.606-0.555,1.311-0.555,2.063
		c0,1.423,0.723,2.679,1.824,3.415c-0.672-0.021-1.305-0.206-1.857-0.513c0,0.018,0,0.035,0,0.052c0,1.988,1.414,3.646,3.291,4.022
		c-0.346,0.094-0.707,0.145-1.082,0.145c-0.264,0-0.521-0.025-0.771-0.074c0.521,1.629,2.037,2.816,3.834,2.85
		c-1.406,1.102-3.174,1.758-5.098,1.758c-0.33,0-0.656-0.021-0.979-0.059c1.814,1.164,3.973,1.844,6.291,1.844
		c7.547,0,11.674-6.254,11.674-11.674c0-0.178-0.004-0.355-0.012-0.531C219.756,25.582,220.449,24.859,221,24.036z"/>
</g>
<g>
	<circle fill-rule="evenodd" clip-rule="evenodd" fill="#CCCCCC" cx="270" cy="29.591" r="20"/>
	<g>
		<path fill="#FEFEFE" d="M270,32.395c-0.134,0-0.27-0.047-0.381-0.133L262,26.243v8.724c0,0.332,0.272,0.604,0.603,0.604h14.795
			c0.33,0,0.603-0.271,0.603-0.604v-8.724l-7.619,6.019C270.27,32.348,270.134,32.395,270,32.395z"/>
		<path fill="#FEFEFE" d="M277.606,23.649c-0.066-0.024-0.137-0.038-0.209-0.038h-14.795c-0.072,0-0.143,0.014-0.209,0.038
			L270,29.658L277.606,23.649z"/>
	</g>
</g>
</svg>
