<?xml version="1.0" encoding="utf-8"?>
<!-- Generator: Adobe Illustrator 16.0.0, SVG Export Plug-In . SVG Version: 6.00 Build 0)  -->
<!DOCTYPE svg PUBLIC "-//W3C//DTD SVG 1.1//EN" "http://www.w3.org/Graphics/SVG/1.1/DTD/svg11.dtd">
<svg version="1.1" id="Layer_1" xmlns="http://www.w3.org/2000/svg" xmlns:xlink="http://www.w3.org/1999/xlink" x="0px" y="0px"
	 width="100px" height="100px" viewBox="0 0 100 100" enable-background="new 0 0 100 100" xml:space="preserve">
<g>
	<path fill="#636262" d="M29.076,60.384c-1.09,1.526-2.941,3.017-5.847,3.017c-4.689,0-8.432-3.814-8.432-9.772
		c0-5.744,3.814-9.994,8.396-9.994c2.505,0,4.358,1.271,5.377,2.324v-9.881h3.269v22.312V63.4h-2.783L29.076,60.384z M28.57,58.203
		V48.83c-0.911-1.162-2.654-2.364-4.65-2.364c-3.525,0-5.778,3.088-5.778,7.052c0,4.031,2.506,6.975,5.812,6.975
		C25.734,60.491,27.442,59.548,28.57,58.203z"/>
	<path fill="#636262" d="M82.441,60.384C81.352,61.91,79.5,63.4,76.591,63.4c-4.688,0-8.432-3.814-8.432-9.772
		c0-5.744,3.815-9.994,8.396-9.994c2.506,0,4.36,1.271,5.377,2.324v-9.881h3.271v22.312V63.4h-2.785L82.441,60.384z M81.932,58.203
		V48.83c-0.906-1.162-2.652-2.364-4.647-2.364c-3.525,0-5.777,3.088-5.777,7.052c0,4.031,2.507,6.975,5.812,6.975
		C79.102,60.491,80.807,59.548,81.932,58.203z"/>
	<g>
		<g>
			<path fill="#636262" d="M42,46.505l8.298,5.216v1.479l-8.273,5.188l-1.165-1.842l6.718-4.1l-6.718-4.123L42,46.505z"/>
			<path fill="#636262" d="M61.285,56.544l-1.166,1.843l-8.273-5.189v-1.477l8.301-5.218l1.142,1.817l-6.72,4.122L61.285,56.544z"/>
		</g>
	</g>
</g>
</svg>
