<svg width="110px" height="100px" version="1.1" xmlns="http://www.w3.org/2000/svg">
    <g transform="matrix(0.05 0 0 0.05 0 0)">
        <g>
            <g>
                <g>
                    <path d="M 1060 440 Q 803 440 622 621 Q 440 803 440 1060 Q 440 1317 622 1498 Q 804 1680 1060 1680 Q 1317 1680 1499 1498 Q 1680 1317 1680 1060 Q 1680 803 1499 621 Q 1317 440 1060 440 Z"
                          fill="rgb(251,105,100)" fill-opacity="1.000"></path>
                    <path d="M 1060 760 Q 891 760 746 845 Q 606 928 524 1070 Q 606 1211 746 1294 Q 891 1380 1060 1380 Q 1230 1380 1375 1294 Q 1515 1211 1597 1070 Q 1515 928 1375 845 Q 1230 760 1060 760 Z"
                          fill="rgb(255,255,255)" fill-opacity="1.000"></path>
                </g>
            </g>
            <clipPath id=":1n">
                <path d="M 1060 760 Q 891 760 746 845 Q 606 928 524 1070 Q 606 1211 746 1294 Q 891 1380 1060 1380 Q 1230 1380 1375 1294 Q 1515 1211 1597 1070 Q 1515 928 1375 845 Q 1230 760 1060 760 Z"></path>
            </clipPath>
            <g clip-path="url(#:1n)">
                <g transform="matrix(1 0 0 1 1040 1060)">
                    <g transform="matrix(1 0 0 1 -220 -240)">
                        <g>
                            <g>
                                <path d="M 250 0 Q 146 0 73 73 Q 0 146 0 250 Q 0 354 73 427 Q 147 500 250 500 Q 354 500 427 427 Q 500 354 500 250 Q 500 146 427 73 Q 354 0 250 0 Z"
                                      fill="rgb(19,82,162)" fill-opacity="1.000"></path>
                                <path d="M 250 180 Q 221 180 201 200 Q 180 221 180 250 Q 180 279 201 299 Q 222 320 250 320 Q 279 320 300 299 Q 320 279 320 250 Q 320 221 300 200 Q 279 180 250 180 Z"
                                      fill="rgb(51,51,51)" fill-opacity="1.000"></path>
                            </g>
                        </g>
                    </g>
                </g>
            </g>
            <g transform="matrix(1 0 0 1 1040 1060)"></g>
        </g>
    </g>
</svg>