<svg width="110px" height="100px" version="1.1" xmlns="http://www.w3.org/2000/svg">
    <g transform="matrix(0.05 0 0 0.05 0 0)">
        <g>
            <g>
                <path d="M 1060 430 Q 803 430 621 611 Q 440 793 440 1050 Q 440 1307 621 1488 Q 803 1670 1060 1670 Q 1317 1670 1498 1488 Q 1680 1307 1680 1050 Q 1680 793 1498 611 Q 1317 430 1060 430 Z"
                      fill="rgb(251,105,100)" fill-opacity="1.000"></path>
            </g>
            <clipPath id=":9">
                <path d="M 1577 -344 Q 1443 -344 1282 -315 Q 559 -185 73 -41 Q -413 102 14 710 Q 440 1317 621 1498 Q 803 1680 1060 1680 Q 1317 1680 1498 1498 Q 1680 1317 2017 890 Q 2354 462 2180 9 Q 2045 -344 1577 -344 Z"></path>
            </clipPath>
            <g clip-path="url(#:9)">
                <g transform="matrix(1 0 0 1 720 100)">
                    <g>
                        <g>
                            <path d="M 340 0 L 210 260 L 470 260 L 340 0 Z" fill="rgb(51,51,51)"
                                  fill-opacity="1.000"></path>
                            <path d="M 219 680 Q 189 680 157 717 Q 124 753 94 753 Q 66 753 42 727 L 0 687 L 0 2240 L 680 2240 L 680 686 Q 660 691 632 725 Q 606 756 577 756 Q 547 756 518 718 Q 488 680 458 680 Q 428 680 399 717 Q 369 754 339 754 Q 309 754 279 717 Q 249 680 219 680 Z"
                                  fill="rgb(254,211,85)" fill-opacity="1.000"></path>
                            <path d="M 210 260 L 0 680 L 0 687 L 42 727 Q 66 753 94 753 Q 124 753 157 717 Q 189 680 219 680 Q 249 680 279 717 Q 309 754 339 754 Q 369 754 399 717 Q 428 680 458 680 Q 488 680 518 718 Q 547 756 577 756 Q 606 756 632 725 Q 660 691 680 686 L 680 680 L 470 260 Z"
                                  fill="rgb(255,255,255)" fill-opacity="1.000"></path>
                        </g>
                    </g>
                </g>
            </g>
            <g transform="matrix(1.06005859375 0 0 1.0599365234375 0 0)"
               style="pointer-events: visiblepainted;">
                <g>
                    <path d="M 0 0 L 0 2000 L 2000 2000 L 2000 0 Z" fill="rgb(0,255,0)"
                          fill-opacity="0.004"></path>
                </g>
            </g>
        </g>
    </g>
</svg>