<?xml version="1.0" encoding="utf-8"?>
<!-- Generator: Adobe Illustrator 16.0.0, SVG Export Plug-In . SVG Version: 6.00 Build 0)  -->
<!DOCTYPE svg PUBLIC "-//W3C//DTD SVG 1.1//EN" "http://www.w3.org/Graphics/SVG/1.1/DTD/svg11.dtd">
<svg version="1.1" id="Layer_1" xmlns="http://www.w3.org/2000/svg" xmlns:xlink="http://www.w3.org/1999/xlink" x="0px" y="0px"
	 width="70px" height="70px" viewBox="0 0 70 70" enable-background="new 0 0 70 70" xml:space="preserve">
<g>
	<path fill="#63BED5" d="M35,0c-9.672,0-17.915,3.406-24.726,10.217C3.425,17.068,0,25.328,0,35s3.425,17.915,10.274,24.727
		C17.124,66.575,25.366,70,35,70c9.672,0,17.933-3.425,24.782-10.273C66.593,52.915,70,44.672,70,35s-3.407-17.932-10.218-24.783
		C52.933,3.406,44.672,0,35,0z"/>
	<g>
		<path fill="#FFFFFF" d="M50.994,41.146c0,2.309-1.872,4.179-4.178,4.179H22.36c-2.309,0-4.179-1.87-4.179-4.179V16.049
			c0-2.308,1.868-4.176,4.179-4.176h24.456c2.306,0,4.178,1.868,4.178,4.176V41.146z"/>
		<g>
			<path fill="#C9C9C9" d="M31.917,15.779c0,0.376-0.303,0.677-0.678,0.677h-9.384c-0.377,0-0.681-0.301-0.681-0.677l0,0
				c0-0.375,0.304-0.68,0.681-0.68h9.384C31.613,15.1,31.917,15.405,31.917,15.779L31.917,15.779z"/>
			<path fill="#C9C9C9" d="M31.917,18.911c0,0.374-0.303,0.677-0.678,0.677h-9.384c-0.377,0-0.681-0.303-0.681-0.677l0,0
				c0-0.376,0.304-0.679,0.681-0.679h9.384C31.613,18.232,31.917,18.535,31.917,18.911L31.917,18.911z"/>
			<path fill="#C9C9C9" d="M48.002,27.669c0,0.374-0.304,0.678-0.679,0.678H21.855c-0.377,0-0.681-0.304-0.681-0.678l0,0
				c0-0.375,0.304-0.678,0.681-0.678h25.468C47.698,26.991,48.002,27.294,48.002,27.669L48.002,27.669z"/>
			<path fill="#C9C9C9" d="M48.002,30.799c0,0.375-0.304,0.679-0.679,0.679H21.855c-0.377,0-0.681-0.306-0.681-0.679l0,0
				c0-0.374,0.304-0.677,0.681-0.677h25.468C47.698,30.122,48.002,30.425,48.002,30.799L48.002,30.799z"/>
			<path fill="#C9C9C9" d="M48.002,33.935c0,0.368-0.304,0.675-0.679,0.675H21.855c-0.377,0-0.681-0.305-0.681-0.675l0,0
				c0-0.377,0.304-0.683,0.681-0.683h25.468C47.698,33.251,48.002,33.558,48.002,33.935L48.002,33.935z"/>
			<path fill="#C9C9C9" d="M48.002,37.061c0,0.378-0.304,0.681-0.679,0.681H21.855c-0.377,0-0.681-0.303-0.681-0.681l0,0
				c0-0.371,0.304-0.678,0.681-0.678h25.468C47.698,36.385,48.002,36.689,48.002,37.061L48.002,37.061z"/>
		</g>
		<path fill="#F26051" d="M56.009,28.599v22.021c0,2.536-2.056,4.596-4.595,4.596h-32.83c-2.54,0-4.597-2.059-4.597-4.596
			L56.009,28.599z"/>
		<path fill="#FB7157" d="M13.987,28.599v22.021c0,2.536,2.059,4.596,4.597,4.596h32.831c2.539,0,4.596-2.059,4.596-4.596
			L13.987,28.599z"/>
		<polygon opacity="0.06" enable-background="new    " points="56.009,50.569 56.009,48.015 37.437,38.283 34.999,39.561 		"/>
	</g>
</g>
</svg>
