<?xml version="1.0" encoding="utf-8"?>
<!-- Generator: Adobe Illustrator 16.0.0, SVG Export Plug-In . SVG Version: 6.00 Build 0)  -->
<!DOCTYPE svg PUBLIC "-//W3C//DTD SVG 1.1//EN" "http://www.w3.org/Graphics/SVG/1.1/DTD/svg11.dtd">
<svg version="1.1" id="Layer_1" xmlns="http://www.w3.org/2000/svg" xmlns:xlink="http://www.w3.org/1999/xlink" x="0px" y="0px"
	 width="110px" height="100px" viewBox="0 0 110 100" enable-background="new 0 0 110 100" xml:space="preserve">
<path fill="#FFBB45" d="M55,17.5c-8.843,0-16.396,3.114-22.658,9.342C26.114,33.104,23,40.657,23,49.5
	c0,8.844,3.114,16.379,9.342,22.605C38.604,78.369,46.157,81.5,55,81.5s16.379-3.131,22.605-9.395C83.869,65.879,87,58.344,87,49.5
	c0-8.843-3.131-16.396-9.395-22.658C71.379,20.614,63.843,17.5,55,17.5z"/>
<g>
	<g>
		<path fill="#FFFFFF" d="M68.426,50.15c-0.052-0.437-0.52-1.586-1.037-2.555L56.721,27.653c-0.519-0.97-0.943-0.864-0.943,0.236
			v18.382c0,1.1-0.349,2-0.777,2s-0.778-0.9-0.778-2V27.889c0-1.1-0.424-1.207-0.943-0.236L42.613,47.596
			c-0.519,0.971-0.986,2.119-1.038,2.555c-0.052,0.437,1.047,1.955,1.791,2.767l9.312,10.159c0.744,0.812,1.668,1.587,2.056,1.724
			c0.387,0.136,1.846-0.911,2.588-1.724l9.312-10.159C67.376,52.104,68.479,50.586,68.426,50.15z"/>
	</g>
	<path opacity="0.1" enable-background="new    " d="M67.938,69.029c0.168,0.479-0.109,0.875-0.621,0.875H42.682
		c-0.509,0-0.789-0.396-0.622-0.875l2.168-6.213c0.168-0.48,0.723-0.875,1.232-0.875h19.076c0.509,0,1.063,0.395,1.229,0.875
		L67.938,69.029z"/>
	<path fill="#FB7157" d="M67.938,68.029c0.168,0.479-0.109,0.875-0.621,0.875H42.682c-0.509,0-0.789-0.396-0.622-0.875l2.168-6.213
		c0.168-0.48,0.723-0.875,1.232-0.875h19.076c0.509,0,1.063,0.395,1.229,0.875L67.938,68.029z"/>
	<circle fill="#FFBB45" cx="55" cy="48.271" r="3.035"/>
	<rect x="53.751" y="25.889" fill="#FFBB45" width="2.499" height="22.863"/>
</g>
</svg>
