<?xml version="1.0" encoding="utf-8"?>
<!-- Generator: Adobe Illustrator 16.0.0, SVG Export Plug-In . SVG Version: 6.00 Build 0)  -->
<!DOCTYPE svg PUBLIC "-//W3C//DTD SVG 1.1//EN" "http://www.w3.org/Graphics/SVG/1.1/DTD/svg11.dtd">
<svg version="1.1" id="Layer_1" xmlns="http://www.w3.org/2000/svg" xmlns:xlink="http://www.w3.org/1999/xlink" x="0px" y="0px"
	 width="70px" height="70px" viewBox="20 15 70 70" enable-background="new 20 15 70 70" xml:space="preserve">
<g>
	<path fill="#FFBB45" d="M55,15c-9.672,0-17.933,3.406-24.782,10.218C23.406,32.067,20,40.328,20,50
		c0,9.673,3.406,17.914,10.218,24.725C37.067,81.575,45.328,85,55,85s17.914-3.425,24.725-10.275C86.575,67.914,90,59.673,90,50
		c0-9.672-3.425-17.933-10.275-24.782C72.914,18.406,64.672,15,55,15z"/>
	<g>
		<g>
			<path fill="#FFFFFF" d="M69.685,50.712c-0.057-0.478-0.568-1.735-1.135-2.795L56.882,26.104
				c-0.567-1.061-1.031-0.944-1.031,0.259v20.105c0,1.203-0.382,2.188-0.851,2.188s-0.851-0.985-0.851-2.188V26.363
				c0-1.203-0.464-1.32-1.032-0.259L41.452,47.917c-0.567,1.062-1.079,2.318-1.135,2.795c-0.057,0.477,1.145,2.138,1.959,3.025
				L52.46,64.849c0.813,0.889,1.824,1.736,2.249,1.886c0.423,0.148,2.02-0.997,2.831-1.886l10.185-11.111
				C68.536,52.848,69.742,51.188,69.685,50.712z"/>
		</g>
		<path fill="#FB7157" d="M69.15,70.267c0.184,0.523-0.119,0.957-0.68,0.957H41.527c-0.557,0-0.863-0.434-0.68-0.957l2.371-6.796
			c0.184-0.525,0.791-0.957,1.347-0.957H65.43c0.557,0,1.164,0.432,1.346,0.957L69.15,70.267z"/>
		<circle fill="#FFBB45" cx="55" cy="48.656" r="3.32"/>
		<rect x="53.634" y="24.176" fill="#FFBB45" width="2.733" height="25.006"/>
	</g>
</g>
</svg>
